<svg width="2367" height="2305" viewBox="0 0 2367 2305" fill="none" xmlns="http://www.w3.org/2000/svg">
<path fill-rule="evenodd" clip-rule="evenodd" d="M1983.71 442.505C1876.16 403.087 1661.19 430.29 1614.58 698.505C1627.36 698.505 1641.76 697.606 1654.29 696.824C1663.93 696.222 1672.45 695.69 1678.27 695.69C1718.93 637.213 1806.98 527.211 1837.16 555.02C1797.75 559.265 1727.66 650.569 1697.54 695.69C1731.81 695.69 1777.12 701.971 1814.2 714.533C1901.71 661.167 1963.67 510.945 1983.71 442.505ZM1956.48 1055C2031.13 936.963 1904.27 660.192 1608.23 723.088C1683.67 757.995 1830.5 840.941 1851.34 908.699C1830.84 856.372 1668.57 776.8 1590 743.555C1622.12 944.716 1847.7 1035 1956.48 1055Z" fill="#056803"/>
<path d="M1614.58 698.505L1609.65 697.649L1608.63 703.505H1614.58V698.505ZM1983.71 442.505L1988.51 443.91L1989.82 439.421L1985.43 437.811L1983.71 442.505ZM1654.29 696.824L1653.98 691.834L1654.29 696.824ZM1678.27 695.69V700.69H1680.89L1682.38 698.544L1678.27 695.69ZM1837.16 555.02L1837.7 559.991L1848.66 558.811L1840.55 551.342L1837.16 555.02ZM1697.54 695.69L1693.38 692.914L1688.19 700.69H1697.54V695.69ZM1814.2 714.533L1812.6 719.268L1814.81 720.018L1816.8 718.801L1814.2 714.533ZM1608.23 723.088L1607.19 718.197L1592.5 721.318L1606.13 727.625L1608.23 723.088ZM1956.48 1055L1955.57 1059.92L1958.89 1060.53L1960.7 1057.67L1956.48 1055ZM1851.34 908.699L1846.69 910.523L1856.12 907.228L1851.34 908.699ZM1590 743.555L1591.95 738.95L1583.64 735.434L1585.06 744.343L1590 743.555ZM1619.5 699.362C1642.57 566.655 1707.07 494.263 1778.48 459.642C1850.16 424.885 1929.37 427.915 1981.99 447.2L1985.43 437.811C1930.5 417.678 1848.45 414.6 1774.11 450.644C1699.49 486.824 1633.2 562.14 1609.65 697.649L1619.5 699.362ZM1653.98 691.834C1641.42 692.618 1627.18 693.505 1614.58 693.505V703.505C1627.55 703.505 1642.11 702.594 1654.6 701.814L1653.98 691.834ZM1678.27 690.69C1672.26 690.69 1663.54 691.237 1653.98 691.834L1654.6 701.814C1664.31 701.208 1672.65 700.69 1678.27 700.69V690.69ZM1840.55 551.342C1830.37 541.959 1816.25 545.234 1802.89 552.676C1789.12 560.344 1773.61 573.724 1758.08 589.489C1726.93 621.106 1694.58 663.482 1674.17 692.836L1682.38 698.544C1702.63 669.421 1734.62 627.557 1765.21 596.506C1780.54 580.937 1795.25 568.376 1807.75 561.412C1820.66 554.223 1828.87 554.176 1833.77 558.697L1840.55 551.342ZM1701.7 698.466C1716.66 676.048 1741.57 642.148 1767.57 613.379C1780.58 598.989 1793.77 585.997 1806.04 576.381C1818.48 566.629 1829.31 560.894 1837.7 559.991L1836.63 550.049C1825.3 551.268 1812.59 558.538 1799.87 568.51C1786.97 578.617 1773.36 592.067 1760.16 606.673C1733.74 635.898 1708.54 670.21 1693.38 692.914L1701.7 698.466ZM1815.8 709.797C1778.15 697.04 1732.29 690.69 1697.54 690.69V700.69C1731.33 700.69 1776.09 706.901 1812.6 719.268L1815.8 709.797ZM1978.91 441.1C1968.98 475.016 1948.61 529.341 1919.87 581.768C1891.06 634.335 1854.21 684.279 1811.6 710.264L1816.8 718.801C1861.7 691.42 1899.59 639.571 1928.64 586.575C1957.77 533.441 1978.4 478.435 1988.51 443.91L1978.91 441.1ZM1609.27 727.978C1755.44 696.925 1859.22 749.706 1917.42 824.27C1976.02 899.338 1988.07 995.699 1952.25 1052.33L1960.7 1057.67C1999.54 996.264 1985.49 895.22 1925.31 818.117C1864.73 740.511 1757.07 686.355 1607.19 718.197L1609.27 727.978ZM1856.12 907.228C1850.56 889.127 1836.79 870.54 1818.71 852.483C1800.54 834.343 1777.61 816.339 1753.1 799.457C1704.07 765.689 1648.24 736.091 1610.33 718.55L1606.13 727.625C1643.66 744.991 1698.97 774.321 1747.42 807.692C1771.65 824.38 1794.06 841.999 1811.64 859.559C1829.31 877.201 1841.71 894.391 1846.57 910.169L1856.12 907.228ZM1588.05 748.159C1627.2 764.726 1687.22 792.841 1739.95 823.301C1766.32 838.535 1790.75 854.287 1809.8 869.411C1829.06 884.699 1842.09 898.779 1846.69 910.523L1856 906.874C1850.35 892.455 1835.4 876.966 1816.02 861.578C1796.42 846.027 1771.53 829.997 1744.95 814.642C1691.77 783.922 1631.37 755.629 1591.95 738.95L1588.05 748.159ZM1957.38 1050.08C1903.56 1040.19 1820.64 1012.84 1747.3 963.076C1673.99 913.329 1610.71 841.527 1594.94 742.766L1585.06 744.343C1601.42 846.744 1666.99 920.666 1741.69 971.351C1816.36 1022.02 1900.62 1049.81 1955.57 1059.92L1957.38 1050.08Z" fill="#056803"/>
<path d="M455.05 1024.23C362.089 570.559 690.818 428 981 428V620.485C738.15 650.062 691.456 984.328 981 1024.23V1520H723.413C723.413 1304.51 481.697 1154.28 455.05 1024.23Z" fill="#FFD600" stroke="#FFD600" stroke-width="20"/>
<path d="M981 1587H736L981 1788V1587Z" fill="#FFD600" stroke="#FFD600" stroke-width="20"/>
<path d="M1098 983.551H1469M1098 983.551V1479H1499.74M1098 983.551V471H1469" stroke="#0185FF" stroke-width="100"/>
<path d="M1366 1574.5V1810H1530.29C1893 1735 1925.5 1253 1530.29 1152H1366V1383.5" stroke="#0185FF" stroke-width="100"/>
</svg>
