<svg xmlns="http://www.w3.org/2000/svg" xmlns:xlink="http://www.w3.org/1999/xlink" width="1080" zoomAndPan="magnify" viewBox="0 0 810 809.999993" height="1080" preserveAspectRatio="xMidYMid meet" version="1.0"><path fill="#7fc6a4" d="M 631.25 195.054688 L 595.765625 196.484375 C 596.871094 181.851562 602.207031 135.820312 638.691406 99.734375 C 656.320312 82.296875 675.078125 73.273438 685.019531 69.164062 C 695.484375 64.855469 719.304688 55.382812 750.253906 58.839844 C 764.027344 60.371094 775.101562 64.027344 782.65625 67.085938 C 775.925781 89.035156 768.433594 106.625 762.554688 119.082031 C 750.28125 145.089844 737.910156 170.699219 711.863281 193.125 C 705.804688 198.363281 700.417969 202.171875 696.886719 204.550781 C 687.824219 201.769531 677.078125 199.164062 664.886719 197.410156 C 653.765625 195.808594 643.597656 195.257812 634.785156 195.257812 C 640.59375 186.085938 645.902344 178.667969 649.957031 173.253906 C 658.425781 161.953125 668.5625 148.625 684.570312 134.84375 C 689.652344 130.480469 694.058594 127.148438 697.117188 124.917969 C 694.660156 126.371094 691.078125 128.601562 686.972656 131.609375 C 678.65625 137.648438 670.71875 144.941406 655.847656 162.90625 C 649.03125 171.148438 640.519531 181.925781 631.226562 195.03125 Z M 631.25 195.054688 " fill-opacity="1" fill-rule="nonzero"/><path fill="#7fc6a4" d="M 587.953125 205.253906 C 601.402344 201.972656 670.316406 186.460938 724.839844 226 C 747.652344 242.539062 759.597656 262.660156 762.097656 267.046875 C 767.683594 276.742188 785.71875 307.992188 777.648438 345.601562 C 775.199219 357.054688 771.015625 365.972656 767.710938 371.863281 C 729.671875 364.847656 701.171875 351.617188 683.113281 341.46875 C 659.523438 328.238281 627.042969 309.996094 604.53125 271.707031 C 591.035156 248.78125 585.949219 226.855469 583.820312 212.269531 C 601.972656 219.585938 621.738281 228.609375 642.472656 239.757812 C 660.300781 249.355469 676.351562 259.203125 690.675781 268.800781 C 678.808594 258.851562 665.035156 248.429688 649.285156 238.203125 C 627.347656 223.972656 606.4375 213.296875 587.976562 205.230469 Z M 587.953125 205.253906 " fill-opacity="1" fill-rule="nonzero"/><path fill="#7fc6a4" d="M 198.0625 273.5625 C 204.949219 321.523438 247.070312 356.550781 295.476562 356.550781 C 295.476562 356.550781 295.578125 356.601562 295.578125 356.652344 L 295.578125 603.820312 C 295.578125 603.820312 295.53125 603.925781 295.476562 603.925781 L 160.296875 603.925781 C 160.296875 603.925781 160.199219 603.871094 160.199219 603.820312 C 160.148438 601.765625 159.195312 569.214844 149.605469 543.28125 C 144.773438 530.179688 134.105469 510.636719 105.832031 473.648438 C 58.449219 411.628906 -3.179688 352.46875 24.464844 222.792969 C 58.5 63.125 290.042969 57.863281 295.476562 58.066406 C 295.53125 58.066406 295.578125 58.113281 295.578125 58.164062 L 295.578125 161.679688 L 294.378906 161.679688 C 235.878906 161.679688 189.421875 213.324219 198.039062 273.535156 Z M 198.0625 273.5625 " fill-opacity="1" fill-rule="nonzero"/><path fill="#7fc6a4" d="M 295.605469 628.90625 L 160.121094 628.90625 L 295.605469 742.46875 Z M 295.605469 628.90625 " fill-opacity="1" fill-rule="nonzero"/><path fill="#7fc6a4" d="M 530.054688 58.089844 L 323.878906 58.089844 L 323.878906 603.972656 L 530.054688 603.972656 L 530.054688 556.039062 L 373.335938 556.039062 L 373.335938 361.613281 L 530.054688 361.613281 L 530.054688 312.277344 L 372.6875 312.277344 L 372.6875 109.03125 L 530.054688 109.03125 Z M 530.054688 58.089844 " fill-opacity="1" fill-rule="nonzero"/><path fill="#7fc6a4" d="M 676.550781 457.386719 C 633.832031 409.398438 580.988281 397.898438 564.917969 395.042969 L 455.199219 395.042969 L 455.199219 533.960938 L 505.164062 533.484375 L 505.164062 444.453125 L 558.332031 444.453125 C 570.523438 446.8125 608.488281 455.730469 639.4375 490.410156 C 672.449219 527.34375 675.78125 569.167969 676.304688 581.117188 C 676.054688 593.800781 673.675781 630.613281 646.90625 665.339844 C 614.625 707.1875 569.699219 716.480469 558.730469 718.433594 L 504.914062 718.433594 L 504.914062 628.480469 L 455.199219 628.90625 L 455.199219 767.199219 L 564.917969 767.199219 C 579.789062 764.894531 635.382812 754.472656 679.15625 704.203125 C 723.4375 653.359375 725.890625 603.972656 725.890625 581.117188 C 725.890625 560.421875 721.578125 507.953125 676.550781 457.386719 Z M 676.550781 457.386719 " fill-opacity="1" fill-rule="nonzero"/></svg>